# xmcd
# 
# Track frame offsets:
#     150
#     14077
#     29780
#     48880
#     63570
#     95072
#     118125
#     145182
#     158705
#     174787
#     190490
#     207692
#     221847
#     238977
#     257192
#     273400
#     281942
#     297015
# 
# Disc length: 4173
# 
# Revision: 16
# Processed by: cddbd v1.5.2PL0 Copyright (c) Steve Scherf et al.
# Submitted via: fre:ac v1.1beta1pre5
# 
DISCID=2d104b12
DTITLE=David Bowie - The Platinum Collection [CD2] (1974 - 1979)
DYEAR=1998
DGENRE=Classic Rock/Glam Rock
TTITLE0=Sound And Vision
TTITLE1=Golden Years [Single]
TTITLE2=Fame
TTITLE3=Young Americans [Single]
TTITLE4=John, I'm Only Dancing (Again)
TTITLE5=Can You Hear Me
TTITLE6=Wild Is The Wind
TTITLE7=Knock On Wood [Live]
TTITLE8=TVC 15 [Single]
TTITLE9=1984
TTITLE10=It's Hard To Be A Saint In The City
TTITLE11=Look Back In Anger
TTITLE12=The Secret Life Of Arabia
TTITLE13=DJ
TTITLE14=Beauty And The Beast
TTITLE15=Breaking Glass
TTITLE16=Boys Keep Swinging
TTITLE17=''Heroes'' [Single]
EXTD=
EXTT0=
EXTT1=
EXTT2=
EXTT3=
EXTT4=
EXTT5=
EXTT6=
EXTT7=
EXTT8=
EXTT9=
EXTT10=
EXTT11=
EXTT12=
EXTT13=
EXTT14=
EXTT15=
EXTT16=
EXTT17=
PLAYORDER=
